<svg id="svg3404" height="512" viewBox="0 0 16.933333 16.933333" width="512" xmlns="http://www.w3.org/2000/svg" xmlns:svg="http://www.w3.org/2000/svg"><path id="comm-17_chat" d="m4.2122736.52917226c-2.031599 0-3.67149896 1.64760004-3.67480496 3.68259994l-.0083 5.0905003c-.0032 1.9451995 1.50443096 3.5186995 3.41015706 3.6567995v3.1804a.26460979.26460891 0 0 0 .4519031.187l3.3325208-3.3408h5.0056154c2.031597 0 3.674804-1.6477 3.674804-3.6830995v-5.0903003c0-2.0346999-1.634905-3.68309994-3.666504-3.68309994zm0 .52900004h8.5253914c1.74691 0 3.137207 1.4011 3.137207 3.1540999v5.0903003c0 1.7520995-1.398603 3.1539995-3.145507 3.1539995h-5.1152354a.26460979.26460891 0 0 0 -.1875002.078l-2.9582518 2.9654v-2.7786a.26460979.26460891 0 0 0 -.264405-.2644c-1.746908 0-3.148619-1.4019-3.145751-3.1534995l.0083-5.0906002c.0028-1.7527 1.398843-3.1543 3.145752-3.1543zm1.608643 4.9060001c-.435233 0-.7937039.3584998-.793701.7937.0000061.4352001.3584749.7937001.793701.7937001.4352269 0 .7936949-.3585.793701-.7937001.0000029-.4352002-.358467-.7937-.793701-.7937zm2.6457528 0c-.4352348 0-.793705.3584998-.7937018.7937.000005.4352001.3584728.7937001.7937018.7937001.4352261 0 .793695-.3585.7937-.7937001.0000032-.4352002-.3584678-.7937-.7937-.7937zm2.6459956 0c-.435231 0-.793948.3584998-.793946.7937.000007.4352001.358721.7937001.793946.7937001.435227 0 .793696-.3585.793701-.7937001.000004-.4352002-.358467-.7937-.793701-.7937zm-5.2917484.5292997c.14927 0 .26465.1152001.2646489.2644003-.0000029.1491998-.1153819.2646-.2646489.2646-.1492681 0-.2646461-.1154002-.264649-.2646-.000001-.1492002.115379-.2644003.264649-.2644003zm2.6457528 0c.14927 0 .264405.1152001.2644032.2644003-.0000021.1491998-.1151361.2646-.2644032.2646-.1492689 0-.2646479-.1154002-.2646489-.2646-.0000011-.1492002.1153771-.2644003.2646489-.2644003zm2.6459956 0c.149271 0 .264406.1152001.264405.2644003-.000003.1491998-.115136.2646-.264405.2646-.149268 0-.264646-.1154002-.264648-.2646-.000001-.1492002.115378-.2644003.264648-.2644003z" font-variant-ligatures="normal" font-variant-position="normal" font-variant-caps="normal" font-variant-numeric="normal" font-variant-alternates="normal" font-feature-settings="normal" text-indent="0" text-align="start" text-decoration-line="none" text-decoration-style="solid" text-decoration-color="rgb(0,0,0)" text-transform="none" text-orientation="mixed" white-space="normal" shape-padding="0" isolation="auto" mix-blend-mode="normal" solid-color="rgb(0,0,0)" solid-opacity="1" vector-effect="none" paint-order="fill markers stroke"/></svg>