<?xml version="1.0" encoding="utf-8"?>
<!-- Generator: Adobe Illustrator 25.2.3, SVG Export Plug-In . SVG Version: 6.00 Build 0)  -->
<svg version="1.1" id="svg3404" xmlns:svg="http://www.w3.org/2000/svg"
	 xmlns="http://www.w3.org/2000/svg" xmlns:xlink="http://www.w3.org/1999/xlink" x="0px" y="0px" viewBox="0 0 512 512"
	 style="enable-background:new 0 0 512 512;" xml:space="preserve">
<style type="text/css">
	.st0{fill:#FFFFFF;}
</style>
<path id="comm-17_chat" vector-effect="none" class="st0" d="M127.4,16c-61.4,0-111,49.8-111.1,111.3L16,281.3
	c-0.1,58.8,45.5,106.4,103.1,110.6V488c0,4.4,3.6,8,8,8c2.1,0,4.2-0.8,5.7-2.3l100.8-101h151.4c61.4,0,111.1-49.8,111.1-111.4V127.4
	C496,65.8,446.6,16,385.1,16L127.4,16z M127.4,32h257.8C438,32,480,74.4,480,127.4v153.9c0,53-42.3,95.4-95.1,95.4H230.2
	c-2.1,0-4.2,0.8-5.7,2.4l-89.4,89.7v-84c0-4.4-3.6-8-8-8c-52.8,0-95.2-42.4-95.1-95.3l0.3-153.9C32.3,74.4,74.5,32,127.4,32
	L127.4,32z M176,180.3c-13.2,0-24,10.8-24,24c0,13.2,10.8,24,24,24c13.2,0,24-10.8,24-24C200,191.2,189.2,180.3,176,180.3z
	 M256,180.3c-13.2,0-24,10.8-24,24c0,13.2,10.8,24,24,24c13.2,0,24-10.8,24-24C280,191.2,269.2,180.3,256,180.3z M336,180.3
	c-13.2,0-24,10.8-24,24c0,13.2,10.8,24,24,24c13.2,0,24-10.8,24-24C360,191.2,349.2,180.3,336,180.3z M176,196.3c4.5,0,8,3.5,8,8
	c0,4.5-3.5,8-8,8c-4.5,0-8-3.5-8-8C168,199.8,171.5,196.3,176,196.3z M256,196.3c4.5,0,8,3.5,8,8c0,4.5-3.5,8-8,8c-4.5,0-8-3.5-8-8
	C248,199.8,251.5,196.3,256,196.3z M336,196.3c4.5,0,8,3.5,8,8c0,4.5-3.5,8-8,8c-4.5,0-8-3.5-8-8C328,199.8,331.5,196.3,336,196.3z"
	/>
</svg>
