<?xml version="1.0" encoding="utf-8"?>
<!-- Generator: Adobe Illustrator 25.2.3, SVG Export Plug-In . SVG Version: 6.00 Build 0)  -->
<svg version="1.1" id="Layer_1" xmlns="http://www.w3.org/2000/svg" xmlns:xlink="http://www.w3.org/1999/xlink" x="0px" y="0px"
	 viewBox="0 0 512 512" style="enable-background:new 0 0 512 512;" xml:space="preserve">
<style type="text/css">
	.st0{fill:#FFFFFF;}
</style>
<g>
	<path class="st0" d="M283.7,228.8c17.5,0,31.8-14.3,31.8-31.8s-14.3-31.8-31.8-31.8c-17.5,0-31.8,14.3-31.8,31.8
		S266.2,228.8,283.7,228.8z M283.7,181.2c8.7,0,15.8,7.1,15.8,15.8s-7.1,15.8-15.8,15.8c-8.7,0-15.8-7.1-15.8-15.8
		S275,181.2,283.7,181.2z"/>
	<path class="st0" d="M446.3,243.5c-3.2-1.2-6.7-0.2-8.9,2.4L402.8,287c-0.1,0.1-0.2,0.2-0.2,0.3L328.7,375c-2,2.4-2.4,5.7-1.1,8.5
		s4.1,4.6,7.3,4.6h108.7c4.4,0,8-3.6,8-8V251C451.6,247.6,449.5,244.6,446.3,243.5L446.3,243.5z M435.6,372.2h-74.9l-4.7-4.7
		l53.2-63.2l26.4,26.4L435.6,372.2L435.6,372.2z M435.6,308L419.5,292l16.1-19.1V308z"/>
	<path class="st0" d="M443.6,123.8H68.4c-4.4,0-8,3.6-8,8v248.4c0,4.4,3.6,8,8,8h203.3c2.4,0,4.6-1,6.1-2.8l171.8-204.2
		c1.2-1.4,1.9-3.3,1.9-5.2v-44.2C451.6,127.4,448,123.8,443.6,123.8z M268,372.2H76.4v-66.1l97.8-97.8l101.4,101.4l24.5,24.5
		L268,372.2z M310.4,321.9L292.5,304l58.2-58.2l12.9,12.9L310.4,321.9z M435.6,173.1l-61.7,73.3l-17.5-17.5
		c-1.5-1.5-3.5-2.3-5.7-2.3s-4.2,0.8-5.7,2.3l-63.9,63.9L179.9,191.3c-1.6-1.6-3.6-2.3-5.7-2.3s-4.1,0.8-5.7,2.3l-92.1,92.1V139.8
		h359.2L435.6,173.1L435.6,173.1z"/>
</g>
</svg>
