<?xml version="1.0" encoding="utf-8"?>
<!-- Generator: Adobe Illustrator 25.2.3, SVG Export Plug-In . SVG Version: 6.00 Build 0)  -->
<svg version="1.1" id="Layer_1" xmlns="http://www.w3.org/2000/svg" xmlns:xlink="http://www.w3.org/1999/xlink" x="0px" y="0px"
	 viewBox="0 0 201.3 203.7" style="enable-background:new 0 0 201.3 203.7;" xml:space="preserve">
<g>
	<g>
		<path d="M63.4,11.9h5.9c1.9,0,3.1-1.2,3.1-3.1s-1.2-3.1-3.1-3.1h-5.9c-1.9,0-3.1,1.2-3.1,3.1S61.9,11.9,63.4,11.9z"/>
		<path d="M193.7,179.4c-1.9,0-3.1,1.2-3.1,3.1v6.2c0,1.9-1.2,3.1-3.1,3.1H13.8c-1.9,0-3.1-1.2-3.1-3.1v-65.2H73
			c0,1.2,0.3,2.5,0.6,3.7c0.3,1.6,2.2,2.8,3.7,2.2c1.6-0.3,2.8-2.2,2.2-3.7c-0.3-1.6-0.6-3.4-0.6-5.3c0-1.9-1.2-3.1-3.1-3.1H11.3
			L33.6,16.2c0.9-2.5,3.1-4.3,5.6-4.3H51c1.9,0,3.1-1.2,3.1-3.1S52.9,5.7,51,5.7H39.2C33.6,5.7,29,9.4,27.7,15L4.5,119.9v68.9
			c0,5.3,4,9.3,9.3,9.3h173.8c5.3,0,9.3-4,9.3-9.3v-6.2C196.9,181,195.6,179.4,193.7,179.4z"/>
		<path d="M196.9,119.9L173.6,15c-1.2-5.6-5.9-9.3-11.5-9.3H81.7c-1.9,0-3.1,1.2-3.1,3.1s1.2,3.1,3.1,3.1h80.4
			c2.5,0,4.7,1.9,5.3,4.3L190,117.4h-64.5c-1.9,0-3.1,1.2-3.1,3.1c0,12.1-9.6,21.7-21.7,21.7c-5.9,0-11.5-2.5-15.5-6.5
			c-1.2-1.2-3.1-1.2-4.3,0c-1.2,1.2-1.2,3.1,0,4.3c5.3,5.6,12.4,8.7,20.2,8.7c14.3,0,26.1-10.9,27.6-24.8h62.1v46.9
			c0,1.9,1.2,3.1,3.1,3.1s3.1-1.2,3.1-3.1V119.9z"/>
		<path d="M16.9,178.8c0,3.7,3.1,6.8,6.8,6.8h2.5c1.9,0,3.1-1.2,3.1-3.1s-1.2-3.1-3.1-3.1h-3.1v-9.3c0-1.9-1.2-3.1-3.1-3.1
			s-3.1,1.2-3.1,3.1V178.8z"/>
		<path d="M20,160.8c1.9,0,3.1-1.2,3.1-3.1v-6.2c0-1.9-1.2-3.1-3.1-3.1s-3.1,1.2-3.1,3.1v6.2C16.9,159.6,18.1,160.8,20,160.8z"/>
		<path d="M181.3,142.2c1.9,0,3.1-1.2,3.1-3.1v-4c0-3.1-2.2-5.3-5.3-5.3h-4c-1.9,0-3.1,1.2-3.1,3.1s1.2,3.1,3.1,3.1h3.1v3.1
			C178.2,141,179.5,142.2,181.3,142.2z"/>
	</g>
</g>
</svg>
