<svg id="Layer_1" enable-background="new 0 0 100 100" height="512" viewBox="0 0 100 100" width="512" xmlns="http://www.w3.org/2000/svg"><g><path d="m50.928 79.343h-38.669c-2.743 0-4.976-2.232-4.976-4.975v-58.869c0-2.743 2.232-4.975 4.976-4.975h62.501c2.743 0 4.975 2.231 4.975 4.975v32.39c0 .69-.56 1.25-1.25 1.25s-1.25-.56-1.25-1.25v-32.39c0-1.364-1.11-2.475-2.475-2.475h-62.501c-1.365 0-2.476 1.11-2.476 2.475v58.869c0 1.365 1.11 2.475 2.476 2.475h38.669c.69 0 1.25.56 1.25 1.25s-.56 1.25-1.25 1.25z"/></g><g><path d="m78.484 27.498h-69.951c-.69 0-1.25-.56-1.25-1.25s.56-1.25 1.25-1.25h69.951c.69 0 1.25.56 1.25 1.25s-.559 1.25-1.25 1.25z"/></g><g><path d="m23.86 23.215c-2.229 0-4.043-1.814-4.043-4.043 0-2.23 1.813-4.044 4.043-4.044s4.045 1.814 4.045 4.044c0 2.229-1.814 4.043-4.045 4.043zm0-5.587c-.851 0-1.543.692-1.543 1.544 0 .851.692 1.543 1.543 1.543.852 0 1.545-.692 1.545-1.543 0-.852-.693-1.544-1.545-1.544z"/></g><g><path d="m63.153 23.215c-2.229 0-4.044-1.814-4.044-4.043 0-2.23 1.814-4.044 4.044-4.044s4.043 1.814 4.043 4.044c0 2.229-1.813 4.043-4.043 4.043zm0-5.587c-.852 0-1.544.692-1.544 1.544 0 .851.692 1.543 1.544 1.543.851 0 1.543-.692 1.543-1.543 0-.852-.692-1.544-1.543-1.544z"/></g><g><path d="m43.509 23.215c-2.229 0-4.043-1.814-4.043-4.043 0-2.23 1.813-4.044 4.043-4.044s4.043 1.814 4.043 4.044c0 2.229-1.814 4.043-4.043 4.043zm0-5.587c-.851 0-1.543.692-1.543 1.544 0 .851.692 1.543 1.543 1.543s1.543-.692 1.543-1.543c0-.852-.693-1.544-1.543-1.544z"/></g><g><path d="m29.137 48.459h-10.552c-.69 0-1.25-.56-1.25-1.25v-10.552c0-.69.56-1.25 1.25-1.25h10.552c.69 0 1.25.56 1.25 1.25v10.553c0 .69-.56 1.249-1.25 1.249zm-9.302-2.5h8.052v-8.053h-8.052z"/></g><g><path d="m29.137 69.565h-10.552c-.69 0-1.25-.56-1.25-1.25v-10.552c0-.69.56-1.25 1.25-1.25h10.552c.69 0 1.25.56 1.25 1.25v10.552c0 .69-.56 1.25-1.25 1.25zm-9.302-2.5h8.052v-8.052h-8.052z"/></g><g><path d="m48.785 48.459h-10.553c-.69 0-1.25-.56-1.25-1.25v-10.552c0-.69.56-1.25 1.25-1.25h10.553c.69 0 1.25.56 1.25 1.25v10.553c0 .69-.559 1.249-1.25 1.249zm-9.303-2.5h8.053v-8.053h-8.053z"/></g><g><path d="m45.474 69.565h-7.241c-.69 0-1.25-.56-1.25-1.25v-10.552c0-.69.56-1.25 1.25-1.25h9.199c.69 0 1.25.56 1.25 1.25s-.56 1.25-1.25 1.25h-7.949v8.052h5.991c.69 0 1.25.56 1.25 1.25s-.56 1.25-1.25 1.25z"/></g><g><path d="m57.881 46.762c-.69 0-1.25-.56-1.25-1.25v-8.855c0-.69.56-1.25 1.25-1.25h10.551c.69 0 1.25.56 1.25 1.25v5.638c0 .69-.56 1.25-1.25 1.25s-1.25-.56-1.25-1.25v-4.388h-8.051v7.605c0 .69-.56 1.25-1.25 1.25z"/></g><g><path d="m69.98 89.476c-12.285 0-22.279-9.995-22.279-22.279s9.994-22.279 22.279-22.279 22.28 9.994 22.28 22.278-9.994 22.28-22.28 22.28zm0-42.059c-10.906 0-19.779 8.873-19.779 19.779s8.873 19.779 19.779 19.779 19.78-8.872 19.78-19.779-8.873-19.779-19.78-19.779z"/></g><g><path d="m79.62 68.446h-9.64c-.69 0-1.25-.56-1.25-1.25v-12.015c0-.69.56-1.25 1.25-1.25s1.25.56 1.25 1.25v10.766h8.39c.69 0 1.25.56 1.25 1.25s-.559 1.249-1.25 1.249z"/></g></svg>