<svg id="Layer_1" height="512" viewBox="0 0 128 128" width="512" xmlns="http://www.w3.org/2000/svg"><g><path d="m70.936 57.193c4.38 0 7.943-3.564 7.943-7.945s-3.563-7.945-7.943-7.945c-4.381 0-7.945 3.564-7.945 7.945s3.564 7.945 7.945 7.945zm0-11.89c2.175 0 3.943 1.77 3.943 3.945s-1.769 3.945-3.943 3.945c-2.176 0-3.945-1.77-3.945-3.945s1.769-3.945 3.945-3.945z"/><path d="m111.582 60.863c-.79-.29-1.674-.052-2.216.591l-8.671 10.305c-.02.021-.038.042-.056.063l-18.456 21.935c-.501.596-.611 1.427-.283 2.132s1.036 1.156 1.813 1.156h27.184c1.104 0 2-.896 2-2v-32.303c-.001-.84-.526-1.591-1.315-1.879zm-2.686 32.182h-18.72l-1.171-1.172 13.293-15.807 6.599 6.598v10.381zm0-16.037-4.014-4.014 4.014-4.77z"/><path d="m110.896 30.955h-93.792c-1.104 0-2 .896-2 2v62.09c0 1.104.896 2 2 2h50.836c.59 0 1.15-.261 1.53-.712l42.957-51.045c.304-.36.47-.816.47-1.288v-11.045c-.001-1.104-.896-2-2.001-2zm-43.887 62.09h-47.905v-16.522l24.447-24.447 25.338 25.338 6.122 6.122zm10.587-12.58-4.465-4.465 14.551-14.552 3.213 3.214zm31.3-37.194-15.417 18.319-4.384-4.385c-.375-.375-.884-.586-1.414-.586s-1.039.211-1.414.586l-15.964 15.967-25.338-25.338c-.391-.391-.902-.586-1.414-.586s-1.023.195-1.414.586l-23.033 23.033v-35.912h89.793v8.316z"/></g></svg>