<?xml version="1.0" encoding="utf-8"?>
<!-- Generator: Adobe Illustrator 25.2.3, SVG Export Plug-In . SVG Version: 6.00 Build 0)  -->
<svg version="1.1" id="Layer_1" xmlns="http://www.w3.org/2000/svg" xmlns:xlink="http://www.w3.org/1999/xlink" x="0px" y="0px"
	 viewBox="0 0 512 512" style="enable-background:new 0 0 512 512;" xml:space="preserve">
<style type="text/css">
	.st0{fill:#FFFFFF;}
</style>
<g>
	<path class="st0" d="M260.8,406.2h-198c-14,0-25.5-11.4-25.5-25.5V79.4c0-14,11.4-25.5,25.5-25.5h320c14,0,25.5,11.4,25.5,25.5
		v165.8c0,3.5-2.9,6.4-6.4,6.4s-6.4-2.9-6.4-6.4V79.4c0-7-5.7-12.7-12.7-12.7h-320c-7,0-12.7,5.7-12.7,12.7v301.4
		c0,7,5.7,12.7,12.7,12.7h198c3.5,0,6.4,2.9,6.4,6.4C267.2,403.4,264.3,406.2,260.8,406.2z"/>
</g>
<g>
	<path class="st0" d="M401.8,140.8H43.7c-3.5,0-6.4-2.9-6.4-6.4s2.9-6.4,6.4-6.4h358.1c3.5,0,6.4,2.9,6.4,6.4
		S405.4,140.8,401.8,140.8z"/>
</g>
<g>
	<path class="st0" d="M122.2,118.9c-11.4,0-20.7-9.3-20.7-20.7c0-11.4,9.3-20.7,20.7-20.7s20.7,9.3,20.7,20.7
		C142.9,109.6,133.6,118.9,122.2,118.9z M122.2,90.3c-4.4,0-7.9,3.5-7.9,7.9c0,4.4,3.5,7.9,7.9,7.9c4.4,0,7.9-3.5,7.9-7.9
		C130.1,93.8,126.5,90.3,122.2,90.3z"/>
</g>
<g>
	<path class="st0" d="M323.3,118.9c-11.4,0-20.7-9.3-20.7-20.7c0-11.4,9.3-20.7,20.7-20.7c11.4,0,20.7,9.3,20.7,20.7
		C344,109.6,334.8,118.9,323.3,118.9z M323.3,90.3c-4.4,0-7.9,3.5-7.9,7.9c0,4.4,3.5,7.9,7.9,7.9c4.4,0,7.9-3.5,7.9-7.9
		C331.2,93.8,327.7,90.3,323.3,90.3z"/>
</g>
<g>
	<path class="st0" d="M222.8,118.9c-11.4,0-20.7-9.3-20.7-20.7c0-11.4,9.3-20.7,20.7-20.7s20.7,9.3,20.7,20.7
		C243.5,109.6,234.2,118.9,222.8,118.9z M222.8,90.3c-4.4,0-7.9,3.5-7.9,7.9c0,4.4,3.5,7.9,7.9,7.9c4.4,0,7.9-3.5,7.9-7.9
		C230.7,93.8,227.1,90.3,222.8,90.3z"/>
</g>
<g>
	<path class="st0" d="M149.2,248.1h-54c-3.5,0-6.4-2.9-6.4-6.4v-54c0-3.5,2.9-6.4,6.4-6.4h54c3.5,0,6.4,2.9,6.4,6.4v54
		C155.6,245.2,152.7,248.1,149.2,248.1z M101.6,235.3h41.2v-41.2h-41.2V235.3z"/>
</g>
<g>
	<path class="st0" d="M149.2,356.2h-54c-3.5,0-6.4-2.9-6.4-6.4v-54c0-3.5,2.9-6.4,6.4-6.4h54c3.5,0,6.4,2.9,6.4,6.4v54
		C155.6,353.3,152.7,356.2,149.2,356.2z M101.6,343.4h41.2v-41.2h-41.2V343.4z"/>
</g>
<g>
	<path class="st0" d="M249.8,248.1h-54c-3.5,0-6.4-2.9-6.4-6.4v-54c0-3.5,2.9-6.4,6.4-6.4h54c3.5,0,6.4,2.9,6.4,6.4v54
		C256.2,245.2,253.3,248.1,249.8,248.1z M202.1,235.3h41.2v-41.2h-41.2V235.3z"/>
</g>
<g>
	<path class="st0" d="M232.8,356.2h-37.1c-3.5,0-6.4-2.9-6.4-6.4v-54c0-3.5,2.9-6.4,6.4-6.4h47.1c3.5,0,6.4,2.9,6.4,6.4
		c0,3.5-2.9,6.4-6.4,6.4h-40.7v41.2h30.7c3.5,0,6.4,2.9,6.4,6.4S236.4,356.2,232.8,356.2z"/>
</g>
<g>
	<path class="st0" d="M296.4,239.4c-3.5,0-6.4-2.9-6.4-6.4v-45.3c0-3.5,2.9-6.4,6.4-6.4h54c3.5,0,6.4,2.9,6.4,6.4v28.9
		c0,3.5-2.9,6.4-6.4,6.4s-6.4-2.9-6.4-6.4v-22.5h-41.2V233C302.8,236.6,299.9,239.4,296.4,239.4z"/>
</g>
<g>
	<path class="st0" d="M358.3,458.1c-62.9,0-114.1-51.2-114.1-114.1S295.4,230,358.3,230S472.4,281.1,472.4,344
		S421.2,458.1,358.3,458.1z M358.3,242.8C302.5,242.8,257,288.2,257,344s45.4,101.3,101.3,101.3S459.6,399.9,459.6,344
		S414.1,242.8,358.3,242.8z"/>
</g>
<g>
	<path class="st0" d="M407.7,350.4h-49.4c-3.5,0-6.4-2.9-6.4-6.4v-61.5c0-3.5,2.9-6.4,6.4-6.4s6.4,2.9,6.4,6.4v55.1h43
		c3.5,0,6.4,2.9,6.4,6.4C414.1,347.6,411.2,350.4,407.7,350.4z"/>
</g>
</svg>
